#!OML:ASF F:\VICON\USERDATA\INSTALL\rory3\rory3.ASF
:FULLY-SPECIFIED
:DEGREES
274
root 8.00242 18.124 -1.17469 -187.418 -0.257573 176.162
lowerback 13.6237 -0.618783 -6.34953
upperback 1.87577 -2.00011 0.100728
thorax -5.4437 -0.96025 4.0647
lowerneck -17.6153 -5.48888 -11.0741
upperneck 36.2369 -3.57768 5.57656
head 16.3426 -1.26182 4.00236
rclavicle -7.10655e-015 2.78299e-015
rhumerus -39.2342 -22.8085 -71.5601
rradius 25.5302
rwrist 11.4804
rhand -13.3953 6.38982
rfingers 7.12502
rthumb 12.7121 -23.2033
lclavicle -7.10655e-015 2.78299e-015
lhumerus -23.5125 5.16875 87.3807
lradius 32.7866
lwrist -4.96733
lhand -18.5196 25.0686
lfingers 7.12502
lthumb 7.76885 54.9059
rfemur -22.9039 -7.41721 13.7206
rtibia 66.0079
rfoot -1.06709 0.365937
rtoes 0.567833
lfemur 6.75098 -2.49242 -27.9213
ltibia 17.6076
lfoot -4.29029 -13.2813
ltoes -9.55003
275
root 8.00542 18.1442 -1.06418 -187.412 -0.248039 176.221
lowerback 13.5379 -0.620271 -6.38628
upperback 1.68788 -1.98783 0.109562
thorax -5.59533 -0.934938 4.0931
lowerneck -17.1823 -5.61975 -11.269
upperneck 36.3282 -3.75365 5.7212
head 16.3191 -1.32439 4.07832
rclavicle 1.04983e-015 1.55052e-014
rhumerus -39.5277 -22.5596 -71.5154
rradius 25.6667
rwrist 11.3005
rhand -13.2042 6.14278
rfingers 7.12502
rthumb 12.8963 -23.4388
lclavicle 1.04983e-015 1.55052e-014
lhumerus -24.2483 4.96827 87.2513
lradius 32.6297
lwrist -4.91305
lhand -18.5307 25.0865
lfingers 7.12502
lthumb 7.75815 54.9241
rfemur -22.2708 -7.57404 13.6408
rtibia 67.2921
rfoot -0.211691 0.277865
rtoes 1.22888
lfemur 6.50447 -2.48421 -27.7939
ltibia 17.2384
lfoot -3.92894 -13.3386
ltoes -9.83591
276
root 8.00807 18.1703 -0.955717 -187.425 -0.199182 176.25
lowerback 13.4448 -0.848177 -6.48515
upperback 1.58045 -1.86151 0.0733296
thorax -5.64998 -0.678779 4.06774
lowerneck -16.9093 -5.72561 -11.3313
upperneck 36.3312 -3.94117 5.82689
head 16.2833 -1.38763 4.10394
rclavicle 2.78299e-015 -1.78906e-015
rhumerus -39.6961 -22.7491 -71.4025
rradius 25.7309
rwrist 11.4147
rhand -13.0764 6.33188
rfingers 7.12502
rthumb 13.0196 -23.2418
lclavicle 2.78299e-015 -1.78906e-015
lhumerus -24.8382 4.68384 87.1348
lradius 32.5016
lwrist -4.84244
lhand -18.6831 25.1525
lfingers 7.12502
lthumb 7.61107 54.9955
rfemur -21.5574 -7.6965 13.4936
rtibia 68.3993
rfoot 0.658146 0.430327
rtoes 0.86505
lfemur 6.33166 -2.4227 -27.7043
ltibia 16.7886
lfoot -3.50105 -13.4118
ltoes -11.0747
277
root 8.00949 18.1989 -0.848851 -187.391 -0.116556 176.428
lowerback 13.2436 -0.819241 -6.34291
upperback 1.55028 -1.79609 0.0758781
thorax -5.58303 -0.654842 3.97351
lowerneck -16.9303 -5.75451 -11.2768
upperneck 36.3723 -4.02094 5.89037
head 16.3184 -1.40141 4.1112
rclavicle -1.39336e-014 4.77083e-015
rhumerus -39.5989 -22.9352 -71.4386
rradius 25.713
rwrist 11.6096
rhand -13.1065 6.79939
rfingers 7.12502
rthumb 12.9905 -22.7762
lclavicle -1.39336e-014 4.77083e-015
lhumerus -25.2768 4.42046 87.0033
lradius 32.3745
lwrist -4.90175
lhand -18.3686 25.3976
lfingers 7.12502
lthumb 7.91457 55.2295
rfemur -20.8 -7.87016 13.5285
rtibia 69.3195
rfoot 1.70714 0.539364
rtoes 1.31022
lfemur 6.17649 -2.2837 -27.4351
ltibia 16.2417
lfoot -3.03455 -13.5786
ltoes -12.3422
278
root 8.01111 18.2262 -0.741509 -187.274 -0.059934 176.661
lowerback 12.974 -0.778129 -6.14114
upperback 1.50644 -1.70328 0.116312
thorax -5.49595 -0.620134 3.87994
lowerneck -16.9547 -5.73972 -11.219
upperneck 36.4079 -4.02025 5.92851
head 16.3407 -1.38338 4.12177
rclavicle -8.44214e-015 -1.98785e-016
rhumerus -39.4799 -23.0195 -71.4822
rradius 25.78
rwrist 11.6186
rhand -13.1213 6.57473
rfingers 7.12502
rthumb 12.9762 -23.0017
lclavicle -8.44214e-015 -1.98785e-016
lhumerus -25.6498 4.35201 86.8765
lradius 32.131
lwrist -5.25364
lhand -18.1303 25.4186
lfingers 7.12502
lthumb 8.14463 55.2416
rfemur -20.049 -8.06434 13.659
rtibia 70.079
rfoot 2.96249 0.464661
rtoes 2.73249
lfemur 5.9575 -2.1405 -27.088
ltibia 15.6559
lfoot -2.5957 -13.7935
ltoes -13.1299
279
root 8.01239 18.2524 -0.635396 -187.192 -0.0448858 176.784
lowerback 12.7855 -0.730198 -6.0231
upperback 1.43133 -1.62231 0.130357
thorax -5.48353 -0.586114 3.81093
lowerneck -17.0027 -5.74589 -11.1961
upperneck 36.5159 -4.00307 5.91479
head 16.4054 -1.36761 4.12342
rclavicle 2.08072e-014 3.97569e-015
rhumerus -39.3529 -22.9835 -71.5137
rradius 25.7771
rwrist 11.497
rhand -13.2684 6.26474
rfingers 7.12502
rthumb 12.8345 -23.3207
lclavicle 2.08072e-014 3.97569e-015
lhumerus -26.0898 4.42912 86.7304
lradius 31.8916
lwrist -5.67332
lhand -18.0972 25.2684
lfingers 7.12502
lthumb 8.17649 55.0902
rfemur -19.1435 -8.29405 13.592
rtibia 70.6774
rfoot 4.07809 0.480214
rtoes 3.96975
lfemur 5.70121 -2.08092 -26.894
ltibia 15.1949
lfoot -2.13 -13.9183
ltoes -12.9028
280
root 8.01461 18.2721 -0.526078 -187.041 -0.0703939 176.918
lowerback 12.5685 -0.712922 -5.93063
upperback 1.26576 -1.59297 0.178825
thorax -5.54396 -0.575495 3.8026
lowerneck -16.8023 -5.7988 -11.3495
upperneck 36.5854 -4.03784 5.97519
head 16.4067 -1.38409 4.17865
rclavicle -1.31943e-014 3.77691e-015
rhumerus -39.371 -22.7199 -71.5259
rradius 25.893
rwrist 11.3273
rhand -13.3505 6.41479
rfingers 7.12502
rthumb 12.7553 -23.1756
lclavicle -1.31943e-014 3.77691e-015
lhumerus -26.7635 4.51334 86.6013
lradius 31.7975
lwrist -5.9567
lhand -17.9998 25.3418
lfingers 7.12502
lthumb 8.27055 55.1599
rfemur -18.2918 -8.60033 13.5564
rtibia 71.1233
rfoot 5.06665 0.448588
rtoes 4.04714
lfemur 5.33972 -1.95136 -26.6682
ltibia 14.7853
lfoot -1.67715 -14.1279
ltoes -12.9798
281
root 8.01798 18.2875 -0.416771 -186.872 -0.178465 177.209
lowerback 12.2974 -0.571888 -5.63998
upperback 1.11254 -1.66575 0.246218
thorax -5.56734 -0.747846 3.73041
lowerneck -16.6997 -5.77698 -11.337
upperneck 36.7377 -3.97877 5.99687
head 16.4541 -1.33999 4.21111
rclavicle -6.60338e-015 -1.98785e-015
rhumerus -39.3943 -22.5387 -71.5678
rradius 26.0111
rwrist 11.1579
rhand -13.3705 6.68738
rfingers 7.12502
rthumb 12.736 -22.9042
lclavicle -6.60338e-015 -1.98785e-015
lhumerus -27.4154 4.61706 86.4045
lradius 31.6376
lwrist -6.14461
lhand -17.9357 25.1827
lfingers 7.12502
lthumb 8.33235 54.9983
rfemur -17.3826 -8.99718 13.7188
rtibia 71.3894
rfoot 6.26489 0.31066
rtoes 4.18657
lfemur 4.98253 -1.89702 -26.2673
ltibia 14.3652
lfoot -1.2632 -14.3361
ltoes -13.4379
282
root 8.0228 18.3047 -0.313035 -186.829 -0.293114 177.37
lowerback 12.0583 -0.610246 -5.51802
upperback 1.05853 -1.6779 0.24906
thorax -5.49283 -0.754372 3.65996
lowerneck -16.6515 -5.75898 -11.3141
upperneck 36.834 -3.95832 6.06184
head 16.4907 -1.30924 4.2494
rclavicle -1.95741e-014 -7.15625e-015
rhumerus -39.3435 -22.6739 -71.5671
rradius 26.0843
rwrist 11.1456
rhand -13.3908 6.5114
rfingers 7.12502
rthumb 12.7164 -23.0814
lclavicle -1.95741e-014 -7.15625e-015
lhumerus -27.9466 4.697 86.178
lradius 31.3781
lwrist -6.34103
lhand -17.9253 24.8833
lfingers 7.12502
lthumb 8.34246 54.6986
rfemur -16.2361 -9.36959 13.6813
rtibia 71.4536
rfoot 7.47759 0.0746548
rtoes 5.61458
lfemur 4.74654 -1.84339 -26.0295
ltibia 14.0151
lfoot -0.86701 -14.5089
ltoes -13.7518
283
root 8.03063 18.3258 -0.203735 -186.71 -0.375231 177.44
lowerback 11.7786 -0.599624 -5.50301
upperback 1.03147 -1.641 0.216777
thorax -5.37036 -0.737859 3.60356
lowerneck -16.5609 -5.85301 -11.3896
upperneck 36.781 -4.15047 6.21604
head 16.4729 -1.37786 4.29331
rclavicle 1.54198e-014 -5.46658e-015
rhumerus -39.1669 -22.8198 -71.6349
rradius 26.1873
rwrist 11.1413
rhand -13.2623 6.31679
rfingers 7.12502
rthumb 12.8403 -23.2683
lclavicle 1.54198e-014 -5.46658e-015
lhumerus -28.2915 4.67553 85.9464
lradius 31.0672
lwrist -6.4575
lhand -17.7232 25.3846
lfingers 7.12502
lthumb 8.5375 55.192
rfemur -15.1636 -9.73475 13.5719
rtibia 71.3432
rfoot 8.6089 -0.0867601
rtoes 7.39575
lfemur 4.33566 -1.6552 -25.8635
ltibia 13.7538
lfoot -0.440993 -14.757
ltoes -13.8537
284
root 8.0384 18.343 -0.0882529 -186.553 -0.490459 177.613
lowerback 11.5867 -0.600658 -5.39192
upperback 0.951418 -1.60785 0.235996
thorax -5.35317 -0.718839 3.55149
lowerneck -16.4243 -5.98608 -11.5037
upperneck 36.6789 -4.38663 6.32855
head 16.4256 -1.4786 4.31291
rclavicle -1.21274e-014 -2.38542e-015
rhumerus -38.9468 -23.0452 -71.5861
rradius 26.1578
rwrist 11.3256
rhand -13.0847 6.21519
rfingers 7.12502
rthumb 13.0115 -23.359
lclavicle -1.21274e-014 -2.38542e-015
lhumerus -28.6531 4.54121 85.7928
lradius 30.7843
lwrist -6.44113
lhand -17.6563 26.0733
lfingers 7.12502
lthumb 8.60205 55.8781
rfemur -14.105 -10.1892 13.6005
rtibia 71.0719
rfoot 9.61521 -0.202348
rtoes 8.69873
lfemur 3.89915 -1.51682 -25.5886
ltibia 13.4239
lfoot -0.00760397 -15.0482
ltoes -13.6499
